<?xml version="1.0" encoding="UTF-8" standalone="no" ?>
<!DOCTYPE svg PUBLIC "-//W3C//DTD SVG 1.1//EN" "http://www.w3.org/Graphics/SVG/1.1/DTD/svg11.dtd">
<svg xmlns="http://www.w3.org/2000/svg" xmlns:xlink="http://www.w3.org/1999/xlink" version="1.1" width="500" height="250" viewBox="0 0 500 250" xml:space="preserve">
<desc>Created with Fabric.js 4.6.0</desc>
<defs>
</defs>
<g transform="matrix(1.89 0 0 1.43 250 125)" id="qrhDD3tsSTxO7BgmnVkHe"  >
<path style="stroke: rgb(0,0,0); stroke-width: 1; stroke-dasharray: none; stroke-linecap: butt; stroke-dashoffset: 0; stroke-linejoin: miter; stroke-miterlimit: 4; fill: rgb(0,0,0); fill-rule: nonzero; opacity: 1;" vector-effect="non-scaling-stroke"  transform=" translate(0, 0)" d="M -131.68605 86.36951 C -131.68605 86.36951 -123.19467 84.43858 -114.36386999999999 77.66954000000001 C -110.39975 74.63094000000001 -110.92859999999999 74.86315000000002 -102.41637999999999 65.03438000000001 C -93.90417 55.205610000000014 -88.00080999999999 41.743510000000015 -77.61627999999999 41.60207000000001 C -67.23174999999999 41.46063000000001 -49.64515999999999 47.27866000000001 -39.87245999999999 46.35188000000001 C -30.09975999999999 45.42510000000001 -27.77393999999999 44.27508000000001 -18.42256999999999 37.38490000000001 C -8.94400999999999 30.40100000000001 -0.10761999999999006 17.85933000000001 7.999810000000011 6.673690000000008 C 18.49318000000001 -7.803769999999993 28.28076000000001 -23.83542999999999 35.285280000000014 -35.903079999999996 C 40.566960000000016 -45.00255 51.600890000000014 -55.573539999999994 57.26743000000002 -57.23513 C 62.933970000000016 -58.896719999999995 70.11685000000001 -59.047579999999996 75.80947000000002 -57.23513 C 81.50209000000002 -55.42268 85.13684000000002 -53.63587 87.50226000000002 -53.16536 C 89.86768000000002 -52.69486 94.22775000000001 -51.66222 99.12789000000002 -53.16536 C 104.02803000000003 -54.6685 112.37618000000002 -59.15591 116.63278000000003 -67.34191 C 121.43902000000003 -76.58494 122.38371000000002 -86.88629 122.38371000000002 -86.88629 C 122.38371000000002 -86.88629 131.68604000000002 -83.97931 131.68604000000002 -72.35141 C 131.68604000000002 -60.7235 131.68604000000002 67.76486999999999 131.68604000000002 67.76486999999999 C 131.68604000000002 67.76486999999999 129.94185000000002 85.20673 110.75581000000003 86.36952 C 91.56976000000003 87.53231 -131.68604999999997 86.36952 -131.68604999999997 86.36952 z" stroke-linecap="round" />
</g>
</svg>